# xmcd CD database file generated by OrangeCD 6.3
#
# Track frame offsets:
#	150
#	24244
#	41808
#	65416
#	84147
#	108750
#	130291
#	151992
#	170929
#	192448
#	207841
#	224568
#	241589
#	267056
#	286038
#
# Disc length: 4085 seconds
#
# Revision: 1
# Processed by: cddbd v1.5.2PL0 Copyright (c) Steve Scherf et al.
# Submitted via: OrangeCD 6.3
#
DISCID=cb0ff30f
DTITLE=Sting - Duetos
DYEAR=2008
DGENRE=Pop/Funk
TTITLE0=Sting and Stevie Wonder - Brand new day (2009)
TTITLE1=Sting and Zucchero - Muoio Per Te
TTITLE2=Sting and Ziggy Marley - One World
TTITLE3=Sting and Charles Aznavour - Love is new everyday
TTITLE4=Sting and Mary J. Blidge - Whenever I say your name
TTITLE5=Sting and Rod Stewart and Bryan Adams - All For Love
TTITLE6=Sting and Craig David - Rise and Fall
TTITLE7=Sting and Sugababes - The Shape Of My Heart
TTITLE8=Sting and Youssou N'Dour - Don't Walk Away
TTITLE9=Sting and Lulu - Sail On Sailor
TTITLE10=Sting and Puff Daddy - I'll be missing you(MTV awards)
TTITLE11=Sting and Antonio Carlos Jobim - How Insensitive
TTITLE12=Sting and Frank Zappa - Murder By Numbers (Live)
TTITLE13=Sting and Shawn Colvin - One day She'll Love Me
TTITLE14=Sting and Chris Botti - In The Wee Small Hours
EXTD=
EXTT0=
EXTT1=
EXTT2=
EXTT3=
EXTT4=
EXTT5=
EXTT6=
EXTT7=
EXTT8=
EXTT9=
EXTT10=
EXTT11=
EXTT12=
EXTT13=
EXTT14=
PLAYORDER=
